<?xml version="1.0" encoding="UTF-8" standalone="no"?><!DOCTYPE svg PUBLIC "-//W3C//DTD SVG 1.1//EN" "http://www.w3.org/Graphics/SVG/1.1/DTD/svg11.dtd"><svg width="100%" height="100%" viewBox="0 0 8 8" version="1.1" xmlns="http://www.w3.org/2000/svg" xmlns:xlink="http://www.w3.org/1999/xlink" xml:space="preserve" xmlns:serif="http://www.serif.com/" style="fill-rule:evenodd;clip-rule:evenodd;stroke-linecap:round;stroke-linejoin:round;stroke-miterlimit:1.5;"><rect id="Artboard1" x="0" y="0" width="8" height="8" style="fill:none;"/><g id="Artboard11" serif:id="Artboard1"><path d="M7,2.5c-0.227,-0.681 -0.839,-1.28 -1.5,-1.5c-0.75,-0.25 -2.25,-0.25 -3,0c-0.661,0.22 -1.273,0.819 -1.5,1.5c-0.25,0.75 -0.25,2.25 -0,3c0.227,0.681 0.839,1.28 1.5,1.5c0.75,0.25 2.25,0.25 3,0c0.661,-0.22 1.273,-0.819 1.5,-1.5c0.25,-0.75 0.25,-2.25 0,-3Z" style="fill:#d8e7fe;stroke:#a4bff7;stroke-width:1px;"/><path d="M4.766,3c0.154,0.522 0.292,1.28 0.307,2" style="fill:none;stroke:#6892e2;stroke-width:1px;"/><path d="M3.27,3c-0.154,0.522 -0.292,1.28 -0.307,2" style="fill:none;stroke:#6892e2;stroke-width:1px;"/></g></svg>