<svg xmlns="http://www.w3.org/2000/svg" xml:space="preserve" fill-rule="evenodd" stroke-linecap="round" stroke-linejoin="round" stroke-miterlimit="1.5" clip-rule="evenodd" viewBox="0 0 8 8">
  <path fill="none" d="M0 0h8v8H0z"/>
  <path fill="#d8e7fe" stroke="#a4bff7" d="M7 2.5A2.49 2.49 0 0 0 5.5 1a6.1 6.1 0 0 0-3 0A2.5 2.5 0 0 0 1 2.5a6.1 6.1 0 0 0 0 3A2.5 2.5 0 0 0 2.5 7a6.1 6.1 0 0 0 3 0A2.49 2.49 0 0 0 7 5.5a6.1 6.1 0 0 0 0-3Z"/>
  <path fill="none" stroke="#6892e2" d="M4.77 3c.15.52.29 1.28.3 2m-1.8-2c-.15.52-.3 1.28-.3 2"/>
</svg>