<?xml version="1.0" encoding="UTF-8" standalone="no"?><!DOCTYPE svg PUBLIC "-//W3C//DTD SVG 1.1//EN" "http://www.w3.org/Graphics/SVG/1.1/DTD/svg11.dtd"><svg width="100%" height="100%" viewBox="0 0 381 368" version="1.1" xmlns="http://www.w3.org/2000/svg" xmlns:xlink="http://www.w3.org/1999/xlink" xml:space="preserve" xmlns:serif="http://www.serif.com/" style="fill-rule:evenodd;clip-rule:evenodd;stroke-linejoin:round;stroke-miterlimit:2;"><g><path d="M78.909,82.334c-10.437,-1.485 -55.82,-9.301 -58.49,-33.215c-3.02,-27.033 43.822,-41.472 77.54,-40.305c20.178,0.699 44.134,6.33 55.868,9.399c1.051,-0.537 2.12,-1.055 3.207,-1.551c13.167,-6.013 26.448,-9.536 46.022,-9.449c19.575,0.087 54.35,11.469 77.976,36.429c5.179,5.472 10.635,14.496 16.094,25.631c10.186,6.727 21.646,15.511 31.49,26.077c24.701,26.51 53.147,83.42 36.878,109.351c-5.311,8.466 -11.17,15.825 -17.311,21.775c2.157,10.584 3.185,15.865 3.193,20.799c0.01,6.594 -9.864,41.299 -15.883,56.275c-6.019,14.977 -14.581,35.699 -19.38,39.821c-4.8,4.121 -33.763,3.565 -39.62,-2.192c-5.857,-5.757 -7.848,-31.288 -7.848,-31.288l-2.218,-2.699c-4.173,1.049 -7.9,1.79 -10.766,2.067c-1.895,0.184 -14.517,46.662 -19.293,50.624c-4.777,3.962 -43.958,4.79 -49.391,-0.227c-2.385,-2.202 -3.254,-10.436 -3.601,-19.528c-2.133,-0.3 -5.527,-0.954 -6.789,-2.179c-1.611,-1.563 -4.432,-25.157 -5.251,-32.285c-7.074,-2.799 -14.925,-6.876 -17.749,-8.835c-4.234,-2.937 -21.867,-14.152 -28.341,-14.068c-9.109,0.119 -43.336,11.043 -55.177,11.687c-6.373,0.347 -11.406,-1.29 -16.768,-5.245c-10.426,-7.69 -15.718,-32.353 -12.303,-43.413c2.678,-8.672 48.013,-28.011 52.067,-39.248c3.109,-8.619 2.356,-21.517 1.836,-27.059c-2.383,0.056 -4.676,0.076 -6.78,0.056c-11.902,-0.109 -36.118,3.983 -58.926,-9.726c-22.808,-13.709 -22.404,-28.875 -21.805,-42.895c0.591,-13.856 16.405,-26.461 22.89,-28.506c4.811,-1.516 18.614,-2.025 30.464,-7.473c7.302,-3.356 13.206,-6.11 18.165,-8.605Zm24.761,-17.381l-16.844,13.144c6.85,-3.959 11.708,-7.762 16.844,-13.144Z" style="fill:#d8e7fe;"/><path d="M122.224,177.371c0,0 6.01,10.278 7.912,16.062c1.925,5.851 9.701,28.137 20.95,27.791c11.249,-0.345 15.076,-9.81 16.054,-12.279c1.813,-4.578 2.912,-15.762 1.768,-21.437c-10.324,-0.558 -19.981,-3.275 -27.55,-12.746l-19.134,2.609Z" style="fill:#edcafe;stroke:#a4bff7;stroke-width:8px;stroke-linecap:round;stroke-miterlimit:1.5;"/><path d="M268.645,309.891c-0,-0 1.991,25.531 7.848,31.288c5.857,5.757 34.82,6.313 39.62,2.192c4.799,-4.122 13.361,-24.844 19.38,-39.821c6.019,-14.976 15.893,-49.681 15.883,-56.275c-0.011,-6.593 -1.842,-13.805 -5.756,-33.464c-3.913,-19.659 -37.923,-141.998 -64.588,-170.169c-23.626,-24.96 -58.401,-36.342 -77.976,-36.429c-19.574,-0.087 -32.855,3.436 -46.022,9.449c-21.714,9.915 -36.237,28.389 -48.534,42.891c-12.32,14.528 -19.805,18.537 -47.756,31.386c-11.85,5.448 -25.653,5.957 -30.464,7.473c-6.485,2.045 -22.299,14.65 -22.89,28.506c-0.599,14.02 -1.003,29.186 21.805,42.895c22.808,13.709 47.024,9.617 58.926,9.726c10.916,0.101 26.932,-0.848 34.082,-2.506c4.057,-0.94 10.073,-2.518 14.604,-2.115c2.691,0.239 3.968,-0.417 4.994,0.613c1.521,1.527 5.4,6.453 11.421,8.91c6.021,2.456 10.405,3.784 15.215,3.473c4.811,-0.312 9.994,-2.603 13.647,-5.341" style="fill:none;stroke:#a4bff7;stroke-width:8px;stroke-linecap:round;stroke-linejoin:miter;stroke-miterlimit:1.5;"/><path d="M269.651,53.813c-0,0 34.482,15.258 58.965,41.537c24.701,26.51 53.147,83.42 36.878,109.351c-16.269,25.932 -37.67,41.483 -56.611,37.92c-18.941,-3.562 -53.399,-48.206 -62.042,-69.994c-7.465,-18.818 -15.173,-56.883 -5.891,-105.257c3.855,-20.091 28.701,-13.557 28.701,-13.557" style="fill:#d8e7fe;"/><path d="M269.651,53.813c-0,0 34.482,15.258 58.965,41.537c24.701,26.51 53.147,83.42 36.878,109.351c-16.269,25.932 -37.67,41.483 -56.611,37.92c-18.941,-3.562 -53.399,-48.206 -62.042,-69.994c-7.465,-18.818 -15.173,-56.883 -5.891,-105.257" style="fill:none;stroke:#a4bff7;stroke-width:8px;stroke-linecap:round;stroke-miterlimit:1.5;"/><path d="M151.965,17.634c-8.411,-2.277 -31.67,-8.046 -54.006,-8.82c-33.718,-1.167 -80.56,13.272 -77.54,40.305c3.019,27.034 60.619,33.495 60.619,33.495" style="fill:none;stroke:#a4bff7;stroke-width:8px;stroke-linecap:round;stroke-miterlimit:1.5;"/><path d="M94.965,181.731c-0,-0 2.154,13.573 -1.9,24.811c-4.054,11.237 -49.389,30.576 -52.067,39.248c-3.415,11.06 1.877,35.723 12.303,43.413c5.362,3.955 10.395,5.592 16.768,5.245c11.841,-0.644 46.068,-11.568 55.177,-11.687c6.474,-0.084 24.107,11.131 28.341,14.068c4.235,2.938 19.778,10.642 27.05,11.649" style="fill:none;stroke:#a4bff7;stroke-width:8px;stroke-linecap:round;stroke-miterlimit:1.5;"/><path d="M174.379,299.457c-0,-0 6.686,5.949 8.143,12.418c1.458,6.469 -0.977,42.765 4.455,47.781c5.433,5.017 44.614,4.189 49.391,0.227c4.776,-3.962 17.398,-50.44 19.293,-50.624c14.54,-1.407 51.225,-14.729 55.955,-19.902" style="fill:none;stroke:#a4bff7;stroke-width:8px;stroke-linecap:round;stroke-miterlimit:1.5;"/><path d="M171.408,308.187c-0,0 3.28,27.919 5.179,29.762c1.898,1.842 4.433,1.949 4.433,1.949" style="fill:none;stroke:#a4bff7;stroke-width:8px;stroke-linecap:round;stroke-miterlimit:1.5;"/><path d="M202.987,97.482c1.704,0.322 5.208,12.163 1.848,25.168c-4.052,15.688 -10.468,19.748 -12.407,19.589c-5.808,-0.475 3.352,-46.121 10.559,-44.757Z" style="fill:#6892e2;"/><path d="M48.539,94.633c-0,0 16.969,-28.042 44.651,-25.875c25.779,2.019 43.679,25.111 45.247,28.565c2.951,6.505 4.004,19.287 2.418,23.059c-2.14,5.085 -30.761,11.951 -37.266,9.971c-6.504,-1.98 -21.061,-38.517 -33.269,-39.164c-12.734,-0.675 -21.781,3.444 -21.781,3.444Z" style="fill:#4c73b3;"/><path d="M66.881,7.211c0,0 -42.38,16.855 -41.616,35.744c0.625,15.444 42.812,20.199 44.053,24.44c1.116,3.811 -15.724,8.248 -25.083,8.251c-9.389,0.002 -28.763,-5.29 -29.587,-22.339c-1.315,-27.182 31.366,-45.395 52.233,-46.096Z" style="fill:#4c73b3;"/><path d="M295.003,164.325c3.382,-0.76 42.45,26.887 40.395,57.444c-1.607,23.892 -18.447,28.651 -24.719,28.677c-17.984,0.076 -30.158,-24.251 -30.158,-24.251c-0,-0 4.377,4.308 7.189,4.402c2.812,0.095 0.715,-45.332 1.885,-52.053c0.976,-5.607 1.117,-13.255 5.408,-14.219Z" style="fill:#4c73b3;"/><path d="M341.526,153.507c4.109,-3.618 36.948,18.72 38.447,46.443c1.389,25.701 -26.93,30.269 -30.668,29.639c-1.874,-0.315 3.888,-5.399 5.839,-11.563c1.952,-6.164 -12.61,-51.907 -13.657,-56.321c-0.623,-2.629 -1.107,-7.189 0.039,-8.198Z" style="fill:#4c73b3;"/><path d="M354.492,237.192c-0,-0 11.457,8.309 11.208,11.614c-0.356,4.731 -12.794,7.835 -12.794,7.835l-2.934,0.203l1.404,-21.693l3.116,2.041Z" style="fill:#a4bff7;"/><path d="M40.286,124.149c2.189,7.405 4.138,18.161 4.358,28.378" style="fill:none;stroke:#6892e2;stroke-width:8px;stroke-linecap:round;stroke-miterlimit:1.5;"/><path d="M24.788,120.054c-5.343,6.127 -5.084,18.196 -4.013,25.681" style="fill:none;stroke:#6892e2;stroke-width:8px;stroke-linecap:round;stroke-miterlimit:1.5;"/></g></svg>