<?xml version="1.0" encoding="UTF-8" standalone="no"?><!DOCTYPE svg PUBLIC "-//W3C//DTD SVG 1.1//EN" "http://www.w3.org/Graphics/SVG/1.1/DTD/svg11.dtd"><svg width="100%" height="100%" viewBox="0 0 64 64" version="1.1" xmlns="http://www.w3.org/2000/svg" xmlns:xlink="http://www.w3.org/1999/xlink" xml:space="preserve" xmlns:serif="http://www.serif.com/" style="fill-rule:evenodd;clip-rule:evenodd;stroke-linecap:round;stroke-linejoin:round;stroke-miterlimit:1.5;"><rect id="Logo-simple" serif:id="Logo simple" x="0" y="0" width="63.994" height="63.994" style="fill:none;"/><g id="Logo-simple1" serif:id="Logo simple"><path d="M56.352,22.413c-1.293,-5.447 -5.633,-10.525 -10.622,-12.696c-5.656,-2.462 -17.315,-3.499 -23.317,-2.075c-5.293,1.256 -10.462,5.488 -12.696,10.621c-2.462,5.657 -3.499,17.316 -2.075,23.318c1.293,5.447 5.633,10.525 10.621,12.696c5.657,2.462 17.316,3.499 23.318,2.075c5.293,-1.256 10.462,-5.488 12.696,-10.622c2.462,-5.656 3.499,-17.315 2.075,-23.317Z" style="fill:#d8e7fe;stroke:#a4bff7;stroke-width:6px;"/><path d="M38.644,24.754c0.838,4.163 1.381,10.15 1.004,15.758" style="fill:none;stroke:#6892e2;stroke-width:6px;"/><path d="M27.013,23.719c-1.56,3.95 -3.152,9.747 -3.77,15.333" style="fill:none;stroke:#6892e2;stroke-width:6px;"/></g></svg>