<?xml version="1.0" encoding="UTF-8" standalone="no"?>
<!DOCTYPE svg PUBLIC "-//W3C//DTD SVG 1.1//EN" "http://www.w3.org/Graphics/SVG/1.1/DTD/svg11.dtd">
<svg width="100%" height="100%" viewBox="0 0 128 128" version="1.1" xmlns="http://www.w3.org/2000/svg" xmlns:xlink="http://www.w3.org/1999/xlink" xml:space="preserve" xmlns:serif="http://www.serif.com/" style="fill-rule:evenodd;clip-rule:evenodd;stroke-linecap:round;stroke-linejoin:round;stroke-miterlimit:1.5;">
    <rect id="Logo-simple" serif:id="Logo simple" x="0" y="0" width="127.988" height="127.988" style="fill:none;"/>
    <g id="Logo-simple1" serif:id="Logo simple">
        <path d="M107.564,46.848c-2.312,-9.745 -10.077,-18.829 -19.001,-22.713c-10.12,-4.404 -30.977,-6.26 -41.715,-3.712c-9.469,2.248 -18.716,9.818 -22.713,19.002c-4.404,10.119 -6.26,30.977 -3.712,41.714c2.313,9.746 10.078,18.83 19.002,22.714c10.119,4.404 30.977,6.26 41.714,3.711c9.47,-2.247 18.717,-9.817 22.714,-19.001c4.404,-10.12 6.26,-30.977 3.711,-41.715Z" style="fill:#d8e7fe;stroke:#a4bff7;stroke-width:12px;"/>
        <path d="M75.885,51.037c1.5,7.447 2.472,18.158 1.796,28.19" style="fill:none;stroke:#6892e2;stroke-width:12px;"/>
        <path d="M55.078,49.186c-2.791,7.065 -5.639,17.436 -6.745,27.429" style="fill:none;stroke:#6892e2;stroke-width:12px;"/>
    </g>
</svg>
