<?xml version="1.0" encoding="UTF-8" standalone="no"?>
<!DOCTYPE svg PUBLIC "-//W3C//DTD SVG 1.1//EN" "http://www.w3.org/Graphics/SVG/1.1/DTD/svg11.dtd">
<svg width="100%" height="100%" viewBox="0 0 64 64" version="1.1" xmlns="http://www.w3.org/2000/svg" xmlns:xlink="http://www.w3.org/1999/xlink" xml:space="preserve" xmlns:serif="http://www.serif.com/" style="fill-rule:evenodd;clip-rule:evenodd;stroke-linejoin:round;stroke-miterlimit:2;">
    <rect id="Logo-simple" serif:id="Logo simple" x="0" y="0" width="63.994" height="63.994" style="fill:none;"/>
    <clipPath id="_clip1">
        <rect id="Logo-simple1" serif:id="Logo simple" x="0" y="0" width="63.994" height="63.994"/>
    </clipPath>
    <g clip-path="url(#_clip1)">
        <rect x="0" y="0" width="64.247" height="63.994" style="fill:#b7cdf9;"/>
        <g>
            <path d="M37.774,11.471c14.639,3.752 19.034,16.557 15.889,31.304c-0.696,3.261 -2.563,6.661 -6.356,8.693c-3.204,1.717 -8.07,2.537 -15.338,0.55c0,0 -9.634,-2.404 -9.634,-2.404c-10.684,-2.622 -13.957,-10.881 -12.308,-17.791c3.627,-15.201 15.543,-23.48 27.747,-20.352Z" style="fill:#a4bff7;"/>
            <path d="M36.76,15.429c12.289,3.15 15.547,14.114 12.907,26.493c-0.947,4.44 -4.937,9.365 -16.664,6.143l-9.684,-2.417c-7.854,-1.923 -10.53,-7.8 -9.318,-12.877c3.016,-12.639 12.611,-19.943 22.759,-17.342Z" style="fill:#d8e7fe;"/>
            <path d="M27.471,24.991c-1.457,-0.698 -7.229,3.213 -7.663,8.926c-0.182,2.39 4.55,3.237 5.071,-0.169c0.725,-4.743 3.715,-8.218 2.592,-8.757Z" style="fill:#6081e6;"/>
            <path d="M38.217,26.996c-2.083,0.327 -0.382,5.901 -0.595,10.727c-0.123,2.8 4.388,3.464 4.703,2.011c1.098,-5.073 -2.066,-13.058 -4.108,-12.738Z" style="fill:#6081e6;"/>
        </g>
    </g>
</svg>
