<svg xmlns="http://www.w3.org/2000/svg" xml:space="preserve" fill-rule="evenodd" stroke-linejoin="round" stroke-miterlimit="2" clip-rule="evenodd" viewBox="0 0 64 64">
  <path fill="none" d="M0 0h63.99v63.99H0z"/>
  <clipPath id="a">
    <path d="M0 0h63.99v63.99H0z"/>
  </clipPath>
  <g clip-path="url(#a)">
    <path fill="#fff" d="M0 0h64.25v63.99H0z"/>
    <path d="M37.77 11.47c14.64 3.75 19.04 16.56 15.9 31.3a12.55 12.55 0 0 1-6.36 8.7c-3.2 1.71-8.07 2.53-15.34.55l-9.64-2.4c-10.68-2.63-13.95-10.89-12.3-17.8 3.62-15.2 15.54-23.48 27.74-20.35Z"/>
    <path fill="#fff" d="M36.76 15.43c12.29 3.15 15.55 14.11 12.9 26.5-.94 4.43-4.93 9.36-16.66 6.13l-9.68-2.41c-7.85-1.93-10.53-7.8-9.32-12.88 3.02-12.64 12.61-19.94 22.76-17.34Z"/>
    <path d="M27.47 25c-1.46-.7-7.23 3.2-7.66 8.92-.18 2.39 4.55 3.23 5.07-.17.72-4.74 3.71-8.22 2.6-8.76Zm10.75 2c-2.09.32-.39 5.9-.6 10.72-.12 2.8 4.39 3.47 4.7 2.01 1.1-5.07-2.06-13.05-4.1-12.73Z"/>
  </g>
</svg>
