<svg xmlns="http://www.w3.org/2000/svg" xml:space="preserve" fill-rule="evenodd" stroke-linecap="round" stroke-linejoin="round" stroke-miterlimit="1.5" clip-rule="evenodd" viewBox="0 0 64 64">
  <path fill="none" d="M0 0h63.99v63.99H0z"/>
  <g stroke-width="6">
    <path fill="#d8e7fe" stroke="#a4bff7" d="M56.35 22.41a19.43 19.43 0 0 0-10.62-12.7c-5.66-2.46-17.32-3.5-23.32-2.07a19.43 19.43 0 0 0-12.7 10.62c-2.46 5.66-3.5 17.32-2.07 23.32a19.43 19.43 0 0 0 10.62 12.7c5.66 2.46 17.32 3.5 23.32 2.07a19.43 19.43 0 0 0 12.7-10.62c2.46-5.66 3.5-17.31 2.07-23.32Z"/>
    <path fill="none" stroke="#6892e2" d="M38.64 24.75a63.7 63.7 0 0 1 1 15.76M27.01 23.72a63.64 63.64 0 0 0-3.77 15.33"/>
  </g>
</svg>
