<svg xmlns="http://www.w3.org/2000/svg" viewBox="0 0 93 27">
  <path fill="#82a0ef" d="M1.96 21.31c1.26 0 1.99-.79 1.99-2.14v-4.86h3.79c4.29 0 7-2.45 7-6.58 0-3.96-2.68-6.56-6.84-6.56H2.85c-2.07 0-2.86.81-2.86 2.89v15.12c0 1.35.72 2.14 1.96 2.14Zm1.99-10.08v-6.9h3.46c2.17 0 3.4 1.26 3.4 3.46 0 2.55-1.25 3.44-4.32 3.44zm26.04 7.96v-8.41c0-3.38-1.93-5.41-5.17-5.41-2.21 0-4.12 1.23-4.64 2.99h-.19V2.13c0-1.36-.69-2.14-1.92-2.14-1.25 0-1.93.78-1.93 2.14v17.05c0 1.36.69 2.12 1.92 2.12s1.93-.76 1.93-2.12v-6.67c0-2.39 1.3-3.9 3.28-3.9 1.8 0 2.86 1.16 2.86 3.19v7.37c0 1.36.69 2.12 1.93 2.12 1.23 0 1.93-.78 1.93-2.12Zm10.95 0h.19v.54c.12 1.01.79 1.58 1.82 1.58 1.2 0 1.88-.75 1.88-2.07v-8.5c0-3.44-2.29-5.38-6.36-5.38q-2.53.01-3.98.81c-1.36.69-1.99 1.61-1.99 2.52 0 .79.53 1.36 1.38 1.36.63 0 1.04-.16 1.48-.51a4 4 0 0 1 2.87-1.22c1.77 0 2.75.82 2.75 2.39v1.27h-3.69c-3.53 0-5.65 1.77-5.65 4.64 0 2.83 2.05 4.73 5.08 4.73 1.9 0 3.44-.79 4.23-2.18Zm-5.48-2.78c0-1.27.94-2.04 2.52-2.04h2.99v1.61c0 1.46-1.3 2.61-2.97 2.61-1.51 0-2.53-.89-2.53-2.18Zm25.55 2.79v-8.45c0-3.41-1.88-5.38-5.19-5.38-2.29 0-4.03 1.14-4.63 2.99H51v-.95c-.04-1.25-.72-1.93-1.88-1.93-1.17 0-1.9.79-1.9 2.07V19.2c0 1.36.7 2.12 1.93 2.12s1.93-.76 1.93-2.12v-6.67c0-2.42 1.26-3.9 3.27-3.9 1.79 0 2.8 1.14 2.8 3.18v7.38c0 1.36.69 2.12 1.93 2.12 1.23 0 1.92-.75 1.92-2.11Zm6.36 5.37V18.8h.19c.69 1.64 2.29 2.58 4.41 2.58 3.65 0 5.84-2.61 5.84-6.93V12.3c0-4.32-2.17-6.91-5.79-6.91-2.18 0-3.9 1.04-4.53 2.71h-.19v-.75c-.09-1.2-.76-1.86-1.9-1.86-1.22 0-1.89.76-1.89 2.14v16.95c0 1.36.69 2.12 1.92 2.12 1.25 0 1.93-.76 1.93-2.12Zm0-10.06v-2.07c0-2.49 1.25-3.97 3.27-3.97 2.07 0 3.24 1.52 3.24 4.2v1.41c0 2.67-1.17 4.2-3.21 4.2-1.98 0-3.3-1.49-3.3-3.78ZM78.73 25q0 .62.42 1.04c.45.44 1.25.67 2.26.67 3.12 0 4.92-1.44 6.14-4.92l4.67-13.4c.16-.45.22-.76.22-1.05 0-1.04-.78-1.8-1.83-1.8q-1.5-.01-1.98 1.85l-3.05 10.59h-.16L82.4 7.39q-.46-1.86-2.01-1.85c-1.1 0-1.9.78-1.9 1.82q-.02.42.19 1.04l4.57 12.96c0 .1-.15.75-.19.83-.32 1-1.05 1.64-1.93 1.64-.44 0-.7-.07-1.01-.07-.83 0-1.39.53-1.39 1.25Z"/>
</svg>
