<svg xmlns="http://www.w3.org/2000/svg" xml:space="preserve" fill-rule="evenodd" stroke-linecap="round" stroke-linejoin="round" stroke-miterlimit="1.5" clip-rule="evenodd" viewBox="0 0 128 128">
  <g stroke-width="12">
    <path fill="#d8e7fe" stroke="#a4bff7" d="M107.56 46.85c-2.3-9.75-10.07-18.83-19-22.72-10.12-4.4-30.97-6.26-41.71-3.7-9.47 2.24-18.72 9.81-22.72 19-4.4 10.11-6.26 30.97-3.7 41.7 2.3 9.76 10.07 18.84 19 22.72 10.11 4.4 30.97 6.26 41.7 3.71 9.48-2.24 18.73-9.81 22.72-19 4.4-10.12 6.26-30.97 3.71-41.71Z"/>
    <path fill="none" stroke="#6892e2" d="M75.89 51.04c1.5 7.44 2.47 18.16 1.8 28.19M55.08 49.19a113.84 113.84 0 0 0-6.75 27.43"/>
  </g>
</svg>
