<svg xmlns="http://www.w3.org/2000/svg" xml:space="preserve" fill-rule="evenodd" stroke-linejoin="round" stroke-miterlimit="2" clip-rule="evenodd" viewBox="0 0 381 368">
  <path fill="#d8e7fe" d="M79 82.3C68.4 80.8 23 73 20.3 49.1c-3-27 43.8-41.5 77.6-40.3 20.1.7 44 6.3 55.8 9.4l3.2-1.5a102 102 0 0 1 46-9.5c19.6.1 54.4 11.5 78 36.4A109 109 0 0 1 297 69.3a175.8 175.8 0 0 1 31.5 26c24.7 26.6 53.2 83.5 36.9 109.4a116.7 116.7 0 0 1-17.3 21.8c2.1 10.6 3.2 15.8 3.2 20.8 0 6.6-9.9 41.3-16 56.2-6 15-14.5 35.7-19.3 39.9-4.8 4-33.8 3.5-39.6-2.2-5.9-5.8-7.9-31.3-7.9-31.3l-2.2-2.7c-4.1 1-7.9 1.8-10.7 2-2 .2-14.6 46.7-19.3 50.7-4.8 4-44 4.8-49.4-.2-2.4-2.2-3.3-10.5-3.6-19.6-2.2-.3-5.6-1-6.8-2.2-1.6-1.5-4.4-25.1-5.3-32.2-7-2.8-14.9-7-17.7-8.9-4.2-3-21.9-14.1-28.4-14-9 0-43.3 11-55.1 11.6-6.4.4-11.4-1.2-16.8-5.2-10.4-7.7-15.7-32.3-12.3-43.4 2.7-8.7 48-28 52-39.3a71.9 71.9 0 0 0 1.9-27H88c-11.9 0-36.1 4-59-9.7C6.5 156.1 6.9 141 7.5 127c.6-13.8 16.4-26.4 22.9-28.5 4.8-1.5 18.6-2 30.4-7.5C68 87.6 74 85 79 82.3ZM103.6 65 86.8 78a74 74 0 0 0 16.9-13.1Z"/>
  <path fill="#edcafe" stroke="#a4bff7" stroke-linecap="round" stroke-miterlimit="1.5" stroke-width="8" d="M122.2 177.4s6 10.2 8 16c1.9 5.9 9.6 28.2 20.9 27.8 11.2-.3 15-9.8 16-12.3 1.9-4.5 3-15.7 1.8-21.4-10.3-.5-20-3.3-27.5-12.7l-19.2 2.6Z"/>
  <path fill="none" stroke="#a4bff7" stroke-linecap="round" stroke-linejoin="miter" stroke-miterlimit="1.5" stroke-width="8" d="M268.6 309.9s2 25.5 7.9 31.3c5.8 5.7 34.8 6.3 39.6 2.2 4.8-4.2 13.4-24.9 19.4-39.8 6-15 15.9-49.7 15.9-56.3 0-6.6-1.9-13.8-5.8-33.5-3.9-19.6-37.9-142-64.6-170.2-23.6-25-58.4-36.3-78-36.4a102 102 0 0 0-46 9.5c-21.7 9.9-36.2 28.4-48.5 42.9C96.2 74 88.7 78 60.7 90.9c-11.8 5.5-25.6 6-30.4 7.5-6.5 2-22.3 14.7-23 28.5-.5 14-1 29.2 21.9 43 22.8 13.6 47 9.5 59 9.6 10.8.1 26.9-.8 34-2.5 4-1 10-2.5 14.6-2 2.7.2 4-.5 5 .5 1.5 1.6 5.4 6.5 11.4 9 6 2.4 10.4 3.7 15.2 3.4 4.8-.3 10-2.6 13.7-5.3"/>
  <path fill="#d8e7fe" d="M269.7 53.8s34.4 15.3 59 41.6c24.6 26.5 53 83.4 36.8 109.3-16.3 26-37.7 41.5-56.6 38-19-3.6-53.4-48.3-62-70-7.5-18.9-15.2-57-6-105.3 3.9-20.1 28.8-13.6 28.8-13.6"/>
  <path fill="none" stroke="#a4bff7" stroke-linecap="round" stroke-miterlimit="1.5" stroke-width="8" d="M269.7 53.8s34.4 15.3 59 41.6c24.6 26.5 53 83.4 36.8 109.3-16.3 26-37.7 41.5-56.6 38-19-3.6-53.4-48.3-62-70-7.5-18.9-15.2-57-6-105.3M152 17.6c-8.4-2.2-31.7-8-54-8.8-33.8-1.2-80.6 13.3-77.6 40.3 3 27 60.6 33.5 60.6 33.5m14 99.1s2.1 13.6-2 24.8c-4 11.3-49.3 30.6-52 39.3-3.4 11 1.9 35.7 12.3 43.4 5.4 4 10.4 5.6 16.8 5.2 11.8-.6 46-11.5 55.1-11.6 6.5-.1 24.2 11 28.4 14 4.2 3 19.8 10.7 27 11.7"/>
  <path fill="none" stroke="#a4bff7" stroke-linecap="round" stroke-miterlimit="1.5" stroke-width="8" d="M174.4 299.5s6.7 6 8.1 12.4c1.5 6.4-1 42.7 4.5 47.8 5.4 5 44.6 4.1 49.4.2 4.7-4 17.4-50.5 19.3-50.6 14.5-1.4 51.2-14.8 56-20m-140.3 18.9s3.3 28 5.2 29.7c1.9 1.9 4.4 2 4.4 2"/>
  <path fill="#6892e2" d="M203 97.5c1.7.3 5.2 12.1 1.8 25.1-4 15.7-10.4 19.8-12.4 19.6-5.8-.4 3.4-46 10.6-44.7Z"/>
  <path fill="#4c73b3" d="M48.5 94.6s17-28 44.7-25.8c25.8 2 43.7 25 45.2 28.5a43 43 0 0 1 2.5 23c-2.2 5.2-30.8 12-37.3 10-6.5-2-21-38.5-33.3-39.1-12.7-.7-21.8 3.4-21.8 3.4ZM66.9 7.2S24.5 24.1 25.3 43c.6 15.4 42.8 20.2 44 24.4 1.1 3.8-15.7 8.2-25 8.2-9.5 0-28.8-5.2-29.7-22.3C13.3 26.1 46 8 67 7.3ZM295 164.3c3.4-.7 42.5 27 40.4 57.5-1.6 23.9-18.4 28.6-24.7 28.6-18 .1-30.2-24.2-30.2-24.2s4.4 4.3 7.2 4.4c2.8 0 .7-45.3 1.9-52 1-5.7 1.1-13.3 5.4-14.3Zm46.5-10.8c4.1-3.6 37 18.7 38.5 46.5 1.4 25.7-27 30.2-30.7 29.6-1.9-.3 3.9-5.4 5.8-11.6 2-6.1-12.6-51.9-13.6-56.3-.6-2.6-1.1-7.2 0-8.2Z"/>
  <path fill="#a4bff7" d="M354.5 237.2s11.4 8.3 11.2 11.6c-.4 4.7-12.8 7.8-12.8 7.8l-3 .2 1.5-21.6 3 2Z"/>
  <path fill="none" stroke="#6892e2" stroke-linecap="round" stroke-miterlimit="1.5" stroke-width="8" d="M40.3 124.1c2.2 7.5 4.1 18.2 4.3 28.4M24.8 120c-5.4 6.2-5.1 18.3-4 25.7"/>
</svg>