<svg xmlns="http://www.w3.org/2000/svg" xml:space="preserve" fill-rule="evenodd" stroke-linejoin="round" stroke-miterlimit="2" clip-rule="evenodd" viewBox="0 0 64 64">
  <path fill="none" d="M0 0h63.994v63.994H0z"/>
  <path fill="#a4bff7" d="M37.774 11.471c14.639 3.752 19.034 16.557 15.889 31.304-.696 3.261-2.563 6.661-6.356 8.693-3.204 1.717-8.07 2.537-15.338.55l-9.634-2.404C11.651 46.992 8.378 38.733 10.027 31.823c3.627-15.201 15.543-23.48 27.747-20.352Z"/>
  <path fill="#d8e7fe" d="M36.76 15.429c12.289 3.15 15.547 14.114 12.907 26.493-.947 4.44-4.937 9.365-16.664 6.143l-9.684-2.417c-7.854-1.923-10.53-7.8-9.318-12.877 3.016-12.639 12.611-19.943 22.759-17.342Z"/>
  <path fill="#6081e6" d="M27.471 24.991c-1.457-.698-7.229 3.213-7.663 8.926-.182 2.39 4.55 3.237 5.071-.169.725-4.743 3.715-8.218 2.592-8.757Zm10.746 2.005c-2.083.327-.382 5.901-.595 10.727-.123 2.8 4.388 3.464 4.703 2.011 1.098-5.073-2.066-13.058-4.108-12.738Z"/>
</svg>
