<svg xmlns="http://www.w3.org/2000/svg" fill="none" viewBox="0 0 90 85">
  <path fill="#fff" fill-opacity="0.4" fill-rule="evenodd" d="M88 64c6.4-29.6-2.4-55.2-31.7-62.7C31.9-4.9 8.1 11.6.8 42c-3.3 13.8 3.3 30.3 24.6 35.6l19.3 4.8c14.5 4 24.3 2.3 30.7-1.1a25 25 0 0 0 12.7-17.4Zm-8-1.8c5.4-24.7-1.1-46.7-25.7-53C34 4 14.8 18.6 8.8 44c-2.5 10.2 2.9 22 18.6 25.8l19.4 4.8c23.4 6.4 31.4-3.4 33.3-12.3ZM35.8 28.4c-3-1.4-14.5 6.4-15.3 17.8-.4 4.8 9 6.5 10.1-.3.7-4.8 2.6-9 4-12s2.3-5 1.2-5.5Zm19.8 15c-.5-5.9-1-10.6 1.7-11 4-.7 10.4 15.3 8.2 25.4-.6 3-9.6 1.6-9.4-4 .2-3.5-.2-7.1-.5-10.4Z" clip-rule="evenodd"/>
</svg>
