<svg xmlns="http://www.w3.org/2000/svg" version="1.0" viewBox="0 0 641 223">
  <path fill="#aaa" d="M86 214c-9-1-17-4-24-8l-6-3-5-5-5-4-4-6-4-6-3-8-2-8v-27l2-9 3-9 4-6 4-6 5-5 5-5 7-3 6-4 7-2 7-2 12-1h12l7 1 8 2 7 4 7 3 5 5 5 4-10 10-10 9-4-3-10-5-5-1H88l-5 2-6 3-3 4-4 4-2 5-2 6v6l-1 7 1 7 2 7 3 5 2 4 4 3 4 3 5 2 6 2h9l10-1 5-2 6-3v-16H91v-27h59v54l-1 3-2 3-5 4-4 4-5 3-5 2-8 2-8 2-10 1H92l-6-1zm266-62V91h34v46h44V91h34v121h-34v-46h-44v46h-34v-61zm-182-1V90h34v121h-34v-60zm59-1V90h35l36 1 5 2c3 0 8 2 10 4l5 2 4 5 5 4 3 7 3 7 1 13v13l-4 6-3 7-4 4-5 5-5 2-5 3-6 2-5 1-18 1h-18v32h-34v-61zm67-2 3-2 2-4 2-5v-5l-2-4-2-4-3-2-3-3h-30v31h30l3-2zm226 39v-24l-8-12-18-28a1751 1751 0 0 0-20-31v-2h39l7 12 12 21 6 9 13-21 13-21h38v2l-41 61-7 10v48h-34v-24zM109 66l-4-1-5-5-5-4-1-5-3-9v-5l1-5c2-7 3-10 8-15l4-4 7-2 7-2h7l6 1 5 2 5 2 3 4 4 3 2 6 2 5v13l-2 5-2 6-4 4-3 3-5 2-4 2-9 1h-9l-5-2zm22-11 4-2 3-4 2-5V34l-2-4-2-4-3-2-4-3-5-1h-6l-4 2-5 2-2 4-3 5-1 3v4l1 5 2 5 2 2 5 3 4 2h10l4-2zM37 39V11h33l3 1 3 2 4 3 3 3 1 5 1 4v5l-1 4-3 4-3 5-4 1-3 2-11 1H49v16H37V39zm31 0 3-2 1-2 1-2v-4l-1-3-3-2-2-2H49v18h15l4-1zm107 25a512 512 0 0 0-19-53h14l4 14 6 19 1 4 1-1 7-19 5-17h9l6 19 7 18v-1l2-6 5-17 4-13h14v1l-4 12-16 41v2h-5l-5-1-6-15-6-15-1 1-3 7-6 15-2 8h-11l-1-3zm74-25V11h42v11h-29v2l-1 5v4h29v11h-28v11h2l15 1h13v11h-43V39zm55 0V11h33l5 3 5 2 2 4 2 5v10l-2 3-1 4-5 3-5 3 5 5 8 10 3 4h-14l-7-9-8-10h-9v19h-12V39zm33-3 2-3v-6l-3-3-2-3h-18v16h1v1h17l2-2zm26 3V11h42v11h-29l-1 6v5h29v11h-28v5l-1 5 1 1v1h30v11h-43V39zm54 0V11h17l18 1 4 2 5 3 2 4 3 4 2 6 1 6v5c-1 6-3 12-6 15l-3 4-5 3-5 2-17 1h-16V39zm33 14 5-5 2-3v-6l-1-6-1-3-1-3-4-3-3-2h-5l-6-1-3 1h-3v34h9l8-1 3-2zm50-14V11h34l5 2 4 2 2 3 2 3v9l-2 2-3 4-1 1 3 3 3 4 1 3 1 4-1 4-1 4-3 3-3 3-5 1-5 1h-31V39zm34 15 2-1v-6l-2-2-2-2h-20v13h20l2-2zm-3-22 4-2v-6l-2-1-2-2h-19v12h16l4-1zm42 24V45l-6-9-11-17-5-8h15l4 8 7 11 2 3 7-11 7-11h14l-11 16-11 17v23h-12V56z"/>
</svg>
